<?xml version="1.0" encoding="us-ascii" standalone="no"?><svg xmlns="http://www.w3.org/2000/svg" xmlns:xlink="http://www.w3.org/1999/xlink" contentStyleType="text/css" height="532px" preserveAspectRatio="none" style="width:898px;height:532px;background:#FFFFFF;" version="1.1" viewBox="0 0 898 532" width="898px" zoomAndPan="magnify"><defs/><g><!--cluster Unified Health Interface--><g id="cluster_Unified Health Interface"><path d="M150.5,69.3 L337.5,69.3 A3.75,3.75 0 0 1 340,71.8 L347,91.5969 L888.5,91.5969 A2.5,2.5 0 0 1 891,94.0969 L891,522.69 A2.5,2.5 0 0 1 888.5,525.19 L150.5,525.19 A2.5,2.5 0 0 1 148,522.69 L148,71.8 A2.5,2.5 0 0 1 150.5,69.3 " fill="none" style="stroke:#000000;stroke-width:1.5;"/><line style="stroke:#000000;stroke-width:1.5;" x1="148" x2="347" y1="91.5969" y2="91.5969"/><text fill="#000000" font-family="sans-serif" font-size="14" font-weight="bold" lengthAdjust="spacing" textLength="186" x="152" y="84.2951">Unified Health Interface</text></g><!--cluster Backend--><g id="cluster_Backend"><path d="M229.5,273.6 L297.5,273.6 A3.75,3.75 0 0 1 300,276.1 L307,295.8969 L856.5,295.8969 A2.5,2.5 0 0 1 859,298.3969 L859,490.69 A2.5,2.5 0 0 1 856.5,493.19 L229.5,493.19 A2.5,2.5 0 0 1 227,490.69 L227,276.1 A2.5,2.5 0 0 1 229.5,273.6 " fill="none" style="stroke:#000000;stroke-width:1.5;"/><line style="stroke:#000000;stroke-width:1.5;" x1="227" x2="307" y1="295.8969" y2="295.8969"/><text fill="#000000" font-family="sans-serif" font-size="14" font-weight="bold" lengthAdjust="spacing" textLength="67" x="231" y="288.5951">Backend</text></g><!--cluster External Services--><g id="cluster_External Services"><path d="M297.5,120.3 L435.5,120.3 A3.75,3.75 0 0 1 438,122.8 L445,142.5969 L856.5,142.5969 A2.5,2.5 0 0 1 859,145.0969 L859,231.1 A2.5,2.5 0 0 1 856.5,233.6 L297.5,233.6 A2.5,2.5 0 0 1 295,231.1 L295,122.8 A2.5,2.5 0 0 1 297.5,120.3 " fill="none" style="stroke:#000000;stroke-width:1.5;"/><line style="stroke:#000000;stroke-width:1.5;" x1="295" x2="445" y1="142.5969" y2="142.5969"/><text fill="#000000" font-family="sans-serif" font-size="14" font-weight="bold" lengthAdjust="spacing" textLength="137" x="299" y="135.2951">External Services</text></g><!--entity Frontend--><g id="elem_Frontend"><rect fill="#F1F1F1" height="46.2969" rx="2.5" ry="2.5" style="stroke:#181818;stroke-width:0.5;" width="103" x="164.5" y="163.3"/><rect fill="#F1F1F1" height="10" style="stroke:#181818;stroke-width:0.5;" width="15" x="247.5" y="168.3"/><rect fill="#F1F1F1" height="2" style="stroke:#181818;stroke-width:0.5;" width="4" x="245.5" y="170.3"/><rect fill="#F1F1F1" height="2" style="stroke:#181818;stroke-width:0.5;" width="4" x="245.5" y="174.3"/><text fill="#000000" font-family="sans-serif" font-size="14" lengthAdjust="spacing" textLength="63" x="179.5" y="196.2951">Frontend</text></g><!--entity Server: REST API--><g id="elem_Server: REST API"><rect fill="#F1F1F1" height="46.2969" rx="2.5" ry="2.5" style="stroke:#181818;stroke-width:0.5;" width="155" x="425.5" y="316.6"/><rect fill="#F1F1F1" height="10" style="stroke:#181818;stroke-width:0.5;" width="15" x="560.5" y="321.6"/><rect fill="#F1F1F1" height="2" style="stroke:#181818;stroke-width:0.5;" width="4" x="558.5" y="323.6"/><rect fill="#F1F1F1" height="2" style="stroke:#181818;stroke-width:0.5;" width="4" x="558.5" y="327.6"/><text fill="#000000" font-family="sans-serif" font-size="14" lengthAdjust="spacing" textLength="115" x="440.5" y="349.5951">Server: REST API</text></g><!--entity Authentication Service--><g id="elem_Authentication Service"><rect fill="#F1F1F1" height="46.2969" rx="2.5" ry="2.5" style="stroke:#181818;stroke-width:0.5;" width="194" x="641" y="422.89"/><rect fill="#F1F1F1" height="10" style="stroke:#181818;stroke-width:0.5;" width="15" x="815" y="427.89"/><rect fill="#F1F1F1" height="2" style="stroke:#181818;stroke-width:0.5;" width="4" x="813" y="429.89"/><rect fill="#F1F1F1" height="2" style="stroke:#181818;stroke-width:0.5;" width="4" x="813" y="433.89"/><text fill="#000000" font-family="sans-serif" font-size="14" lengthAdjust="spacing" textLength="154" x="656" y="455.8851">Authentication Service</text></g><!--entity Data Processing Service--><g id="elem_Data Processing Service"><rect fill="#F1F1F1" height="46.2969" rx="2.5" ry="2.5" style="stroke:#181818;stroke-width:0.5;" width="207" x="399.5" y="422.89"/><rect fill="#F1F1F1" height="10" style="stroke:#181818;stroke-width:0.5;" width="15" x="586.5" y="427.89"/><rect fill="#F1F1F1" height="2" style="stroke:#181818;stroke-width:0.5;" width="4" x="584.5" y="429.89"/><rect fill="#F1F1F1" height="2" style="stroke:#181818;stroke-width:0.5;" width="4" x="584.5" y="433.89"/><text fill="#000000" font-family="sans-serif" font-size="14" lengthAdjust="spacing" textLength="167" x="414.5" y="455.8851">Data Processing Service</text></g><!--entity Database--><g id="elem_Database"><rect fill="#F1F1F1" height="46.2969" rx="2.5" ry="2.5" style="stroke:#181818;stroke-width:0.5;" width="106" x="259" y="422.89"/><rect fill="#F1F1F1" height="10" style="stroke:#181818;stroke-width:0.5;" width="15" x="345" y="427.89"/><rect fill="#F1F1F1" height="2" style="stroke:#181818;stroke-width:0.5;" width="4" x="343" y="429.89"/><rect fill="#F1F1F1" height="2" style="stroke:#181818;stroke-width:0.5;" width="4" x="343" y="433.89"/><text fill="#000000" font-family="sans-serif" font-size="14" lengthAdjust="spacing" textLength="66" x="274" y="455.8851">Database</text></g><!--entity Payment Gateway--><g id="elem_Payment Gateway"><rect fill="#F1F1F1" height="46.2969" rx="2.5" ry="2.5" style="stroke:#181818;stroke-width:0.5;" width="163" x="671.5" y="163.3"/><rect fill="#F1F1F1" height="10" style="stroke:#181818;stroke-width:0.5;" width="15" x="814.5" y="168.3"/><rect fill="#F1F1F1" height="2" style="stroke:#181818;stroke-width:0.5;" width="4" x="812.5" y="170.3"/><rect fill="#F1F1F1" height="2" style="stroke:#181818;stroke-width:0.5;" width="4" x="812.5" y="174.3"/><text fill="#000000" font-family="sans-serif" font-size="14" lengthAdjust="spacing" textLength="123" x="686.5" y="196.2951">Payment Gateway</text></g><!--entity SMS Gateway--><g id="elem_SMS Gateway"><rect fill="#F1F1F1" height="46.2969" rx="2.5" ry="2.5" style="stroke:#181818;stroke-width:0.5;" width="133" x="503.5" y="163.3"/><rect fill="#F1F1F1" height="10" style="stroke:#181818;stroke-width:0.5;" width="15" x="616.5" y="168.3"/><rect fill="#F1F1F1" height="2" style="stroke:#181818;stroke-width:0.5;" width="4" x="614.5" y="170.3"/><rect fill="#F1F1F1" height="2" style="stroke:#181818;stroke-width:0.5;" width="4" x="614.5" y="174.3"/><text fill="#000000" font-family="sans-serif" font-size="14" lengthAdjust="spacing" textLength="93" x="518.5" y="196.2951">SMS Gateway</text></g><!--entity Email Service--><g id="elem_Email Service"><rect fill="#F1F1F1" height="46.2969" rx="2.5" ry="2.5" style="stroke:#181818;stroke-width:0.5;" width="130" x="338" y="163.3"/><rect fill="#F1F1F1" height="10" style="stroke:#181818;stroke-width:0.5;" width="15" x="448" y="168.3"/><rect fill="#F1F1F1" height="2" style="stroke:#181818;stroke-width:0.5;" width="4" x="446" y="170.3"/><rect fill="#F1F1F1" height="2" style="stroke:#181818;stroke-width:0.5;" width="4" x="446" y="174.3"/><text fill="#000000" font-family="sans-serif" font-size="14" lengthAdjust="spacing" textLength="90" x="353" y="196.2951">Email Service</text></g><!--entity User--><g id="elem_User"><rect fill="#F1F1F1" height="46.2969" rx="2.5" ry="2.5" style="stroke:#181818;stroke-width:0.5;" width="72" x="7" y="7"/><rect fill="#F1F1F1" height="10" style="stroke:#181818;stroke-width:0.5;" width="15" x="59" y="12"/><rect fill="#F1F1F1" height="2" style="stroke:#181818;stroke-width:0.5;" width="4" x="57" y="14"/><rect fill="#F1F1F1" height="2" style="stroke:#181818;stroke-width:0.5;" width="4" x="57" y="18"/><text fill="#000000" font-family="sans-serif" font-size="14" lengthAdjust="spacing" textLength="32" x="22" y="39.9951">User</text></g><!--entity Admin--><g id="elem_Admin"><rect fill="#F1F1F1" height="46.2969" rx="2.5" ry="2.5" style="stroke:#181818;stroke-width:0.5;" width="83" x="114.5" y="7"/><rect fill="#F1F1F1" height="10" style="stroke:#181818;stroke-width:0.5;" width="15" x="177.5" y="12"/><rect fill="#F1F1F1" height="2" style="stroke:#181818;stroke-width:0.5;" width="4" x="175.5" y="14"/><rect fill="#F1F1F1" height="2" style="stroke:#181818;stroke-width:0.5;" width="4" x="175.5" y="18"/><text fill="#000000" font-family="sans-serif" font-size="14" lengthAdjust="spacing" textLength="43" x="129.5" y="39.9951">Admin</text></g><!--entity Doctor--><g id="elem_Doctor"><rect fill="#F1F1F1" height="46.2969" rx="2.5" ry="2.5" style="stroke:#181818;stroke-width:0.5;" width="87" x="232.5" y="7"/><rect fill="#F1F1F1" height="10" style="stroke:#181818;stroke-width:0.5;" width="15" x="299.5" y="12"/><rect fill="#F1F1F1" height="2" style="stroke:#181818;stroke-width:0.5;" width="4" x="297.5" y="14"/><rect fill="#F1F1F1" height="2" style="stroke:#181818;stroke-width:0.5;" width="4" x="297.5" y="18"/><text fill="#000000" font-family="sans-serif" font-size="14" lengthAdjust="spacing" textLength="47" x="247.5" y="39.9951">Doctor</text></g><!--entity Hospital--><g id="elem_Hospital"><rect fill="#F1F1F1" height="46.2969" rx="2.5" ry="2.5" style="stroke:#181818;stroke-width:0.5;" width="95" x="354.5" y="7"/><rect fill="#F1F1F1" height="10" style="stroke:#181818;stroke-width:0.5;" width="15" x="429.5" y="12"/><rect fill="#F1F1F1" height="2" style="stroke:#181818;stroke-width:0.5;" width="4" x="427.5" y="14"/><rect fill="#F1F1F1" height="2" style="stroke:#181818;stroke-width:0.5;" width="4" x="427.5" y="18"/><text fill="#000000" font-family="sans-serif" font-size="14" lengthAdjust="spacing" textLength="55" x="369.5" y="39.9951">Hospital</text></g><!--link Frontend to Backend--><g id="link_Frontend_Backend"><path d="M209.44,209.77 C208.77,230.65 211.885,262.555 216.7675,289.4075 C219.2088,302.8338 222.0919,314.9969 225.1647,323.8872 C225.5488,324.9985 225.9359,326.0586 226.3254,327.0637 C226.5202,327.5663 224.4255,322.5092 224.6215,322.9838 " fill="none" id="Frontend-to-Backend" style="stroke:#181818;stroke-width:1.0;stroke-dasharray:7.0,7.0;"/><polygon fill="#181818" points="226.9115,328.5296,227.1737,318.6842,225.0032,323.9081,219.7793,321.7375,226.9115,328.5296" style="stroke:#181818;stroke-width:1.0;"/></g><!--link Frontend to Backend--><g id="link_Frontend_Backend"><path d="M228.71,209.77 C231.7675,220.21 234.5344,233.4063 236.7586,247.3491 C237.8707,254.3205 238.8471,261.4785 239.6564,268.572 C239.7576,269.4587 239.8561,270.3444 239.952,271.2285 C239.9999,271.6706 240.0472,272.1123 240.0938,272.5536 C240.1171,272.7742 239.5187,267.0271 239.5416,267.2475 " fill="none" id="Frontend-to-Backend-1" style="stroke:#181818;stroke-width:1.0;"/><polygon fill="#181818" points="240.1632,273.2152,243.2093,263.8492,239.6452,268.2421,235.2523,264.678,240.1632,273.2152" style="stroke:#181818;stroke-width:1.0;"/></g><!--link Server: REST API to Authentication Service--><g id="link_Server: REST API_Authentication Service"><path d="M553.99,363.38 C593.41,380.87 642.2358,402.5363 681.6258,420.0163 " fill="none" id="Server: REST API-to-Authentication Service" style="stroke:#181818;stroke-width:1.0;stroke-dasharray:7.0,7.0;"/><polygon fill="#181818" points="687.11,422.45,680.5061,415.1432,682.5398,420.4219,677.2611,422.4556,687.11,422.45" style="stroke:#181818;stroke-width:1.0;"/></g><!--link Server: REST API to Data Processing Service--><g id="link_Server: REST API_Data Processing Service"><path d="M503,363.38 C503,380.87 503,398.97 503,416.45 " fill="none" id="Server: REST API-to-Data Processing Service" style="stroke:#181818;stroke-width:1.0;stroke-dasharray:7.0,7.0;"/><polygon fill="#181818" points="503,422.45,507,413.45,503,417.45,499,413.45,503,422.45" style="stroke:#181818;stroke-width:1.0;"/></g><!--link Server: REST API to Database--><g id="link_Server: REST API_Database"><path d="M461.56,363.38 C429.52,380.87 390.6464,402.095 358.6264,419.575 " fill="none" id="Server: REST API-to-Database" style="stroke:#181818;stroke-width:1.0;stroke-dasharray:7.0,7.0;"/><polygon fill="#181818" points="353.36,422.45,363.1762,421.6485,357.7486,420.0542,359.3429,414.6267,353.36,422.45" style="stroke:#181818;stroke-width:1.0;"/></g><!--link Payment Gateway to Backend--><g id="link_Payment Gateway_Backend"><path d="M725.98,210.1 C707.12,224.41 680.64,241.65 654,249.6 C632.12,256.13 259.77,242.1 243,257.6 C239.7775,260.5775 237.2181,264.0238 235.2085,267.7816 C234.7061,268.721 234.2381,269.6799 233.8027,270.6559 C233.5849,271.1439 233.3754,271.6361 233.1737,272.1323 C233.0729,272.3803 232.974,272.6294 232.8772,272.8794 C232.8287,273.0044 234.9038,267.5179 234.8563,267.6433 " fill="none" id="Payment Gateway-to-Backend" style="stroke:#181818;stroke-width:1.0;stroke-dasharray:7.0,7.0;"/><polygon fill="#181818" points="232.7333,273.2552,239.6591,266.2528,234.5025,268.5786,232.1766,263.4221,232.7333,273.2552" style="stroke:#181818;stroke-width:1.0;"/></g><!--link SMS Gateway to Backend--><g id="link_SMS Gateway_Backend"><path d="M547.64,209.95 C531.88,224.2 509.47,241.43 486,249.6 C473.24,254.04 252.86,248.36 243,257.6 C239.7975,260.6 237.2533,264.0633 235.2549,267.8337 C234.7553,268.7762 234.2898,269.738 233.8567,270.7166 C233.6401,271.2058 233.4316,271.6993 233.231,272.1966 C233.1307,272.4453 233.0324,272.6949 232.936,272.9455 C232.8878,273.0708 234.9498,267.5795 234.9025,267.7052 " fill="none" id="SMS Gateway-to-Backend" style="stroke:#181818;stroke-width:1.0;stroke-dasharray:7.0,7.0;"/><polygon fill="#181818" points="232.7928,273.3221,239.702,266.3033,234.5509,268.6414,232.2128,263.4903,232.7928,273.3221" style="stroke:#181818;stroke-width:1.0;"/></g><!--link Email Service to Backend--><g id="link_Email Service_Backend"><path d="M384.98,209.85 C372.32,223.85 354.1,240.85 334,249.6 C315.39,257.7 257.43,243.32 243,257.6 C239.88,260.6863 237.3983,264.215 235.446,268.0338 C234.9579,268.9885 234.503,269.9613 234.0794,270.9499 C233.8676,271.4442 233.6637,271.9424 233.4673,272.4443 C233.3692,272.6952 233.2729,272.9471 233.1786,273.1998 C233.1314,273.3261 235.1406,267.8159 235.0944,267.9427 " fill="none" id="Email Service-to-Backend" style="stroke:#181818;stroke-width:1.0;stroke-dasharray:7.0,7.0;"/><polygon fill="#181818" points="233.0384,273.5795,239.8802,266.495,234.7517,268.8822,232.3645,263.7537,233.0384,273.5795" style="stroke:#181818;stroke-width:1.0;"/></g><!--link User to Frontend--><g id="link_User_Frontend"><path d="M68.16,53.59 C100.96,82.84 153.522,129.7265 186.332,158.9865 " fill="none" id="User-to-Frontend" style="stroke:#181818;stroke-width:1.0;stroke-dasharray:7.0,7.0;"/><polygon fill="#181818" points="190.81,162.98,186.7553,154.0045,187.0784,159.6521,181.4307,159.9751,190.81,162.98" style="stroke:#181818;stroke-width:1.0;"/></g><!--link Admin to Frontend--><g id="link_Admin_Frontend"><path d="M164.72,53.59 C176.1,82.84 193.7051,128.128 205.0851,157.388 " fill="none" id="Admin-to-Frontend" style="stroke:#181818;stroke-width:1.0;stroke-dasharray:7.0,7.0;"/><polygon fill="#181818" points="207.26,162.98,207.7257,153.1422,205.4476,158.32,200.2697,156.042,207.26,162.98" style="stroke:#181818;stroke-width:1.0;"/></g><!--link Doctor to Frontend--><g id="link_Doctor_Frontend"><path d="M267.28,53.59 C255.9,82.84 238.2949,128.128 226.9149,157.388 " fill="none" id="Doctor-to-Frontend" style="stroke:#181818;stroke-width:1.0;stroke-dasharray:7.0,7.0;"/><polygon fill="#181818" points="224.74,162.98,231.7303,156.042,226.5524,158.32,224.2743,153.1422,224.74,162.98" style="stroke:#181818;stroke-width:1.0;"/></g><!--link Hospital to Frontend--><g id="link_Hospital_Frontend"><path d="M354.35,48.41 C348.55,50.21 342.67,51.89 337,53.3 C315.16,58.73 305.51,48.5 287,61.3 C251.46,85.87 233.2773,128.6782 224.0873,157.2482 " fill="none" id="Hospital-to-Frontend" style="stroke:#181818;stroke-width:1.0;stroke-dasharray:7.0,7.0;"/><polygon fill="#181818" points="222.25,162.96,228.8138,155.6172,223.7811,158.2002,221.1981,153.1675,222.25,162.96" style="stroke:#181818;stroke-width:1.0;"/></g><!--link Backend to Database--><g id="link_Backend_Database"><path d="M235.03,340.89 C235.36,342.36 238.1,354.39 243,362.89 C255.74,385 270.4789,402.6192 285.2689,418.2692 " fill="none" id="Backend-to-Database" style="stroke:#181818;stroke-width:1.0;"/><polygon fill="#181818" points="289.39,422.63,286.1155,413.3414,285.9557,418.996,280.3011,418.8363,289.39,422.63" style="stroke:#181818;stroke-width:1.0;"/></g><!--link Backend to External Services--><g id="link_Backend_External Services"><path d="M233.4284,273.4461 C233.5207,273.1913 233.6148,272.9373 233.7107,272.6842 C233.9026,272.178 234.1019,271.6751 234.3088,271.176 C234.7225,270.1777 235.1667,269.1942 235.6429,268.2278 C237.5477,264.3622 239.965,260.77 243,257.6 C260.39,239.43 281.93,268.05 299,249.6 C301.2763,247.1388 303.0598,244.3622 304.4367,241.3828 C305.1252,239.8931 305.7119,238.3526 306.2077,236.7756 C306.4556,235.987 306.6808,235.1893 306.8846,234.3842 C306.9356,234.1829 305.5912,239.817 305.6395,239.6149 " fill="none" id="Backend-to-External Services" style="stroke:#181818;stroke-width:1.0;"/><polygon fill="#181818" points="307.0335,233.779,301.0519,241.6034,305.8718,238.6422,308.833,243.4621,307.0335,233.779" style="stroke:#181818;stroke-width:1.0;"/></g><!--SRC=[ZL7DRi8m3BxdAIpky00xJ2gY6nmcLIkSgXwyr815crI9zuEclllIKRfgcT1kyVTZVtPQr2Sy4CnsXlTC5Qm9Qpd2nWYvFMgQmQS2A1wS3OYfIbWixg5O1bjV1QgzTXYmYo5OSd9lvExWESsta6IRmPgyof6Ci4PXQw1NiQRofcU5Wf0vgybxDeV_crxGVwkwQT3q8-nciBwsyMFa3CzDo0QFAFIEvtZPVjfJVfDF6-InTQpeLATKiVFa1cwyh2gIgc4JmokhnVuXNrlVic0TCMhoNVFvTFxukk0_9_f5H2SgrHS0]--></g></svg>